# This file uses centimeters as units for non-parametric coordinates.

mtllib DrieHoekDing.mtl
g default
v 5.172812 5.423741 -0.183338
v 7.171692 5.423741 -0.183338
v 5.172812 9.024630 -0.183338
v 7.171692 8.063030 -0.183338
v 5.172812 9.024630 -1.718387
v 7.171692 8.063030 -1.718387
v 5.172812 5.423741 -1.718387
v 7.171692 5.423741 -1.718387
vt 0.001948 0.001992
vt 0.319746 0.001992
vt 0.319746 0.421607
vt 0.001948 0.574490
vt 0.481804 0.896191
vt 0.481804 0.578393
vt 0.725859 0.578393
vt 0.725859 0.896191
vt 0.577691 0.001992
vt 0.895489 0.154875
vt 0.895489 0.574490
vt 0.577691 0.574490
vt 0.731858 0.578393
vt 0.975912 0.578393
vt 0.975912 0.998008
vt 0.731858 0.998008
vt 0.326125 0.001992
vt 0.570179 0.001992
vt 0.570179 0.574490
vt 0.326125 0.574490
vn 0.000000 0.000000 1.000000
vn 0.000000 0.000000 1.000000
vn 0.000000 0.000000 1.000000
vn 0.000000 0.000000 1.000000
vn 0.433514 0.901147 0.000000
vn 0.433514 0.901147 0.000000
vn 0.433514 0.901147 0.000000
vn 0.433514 0.901147 0.000000
vn 0.000000 0.000000 -1.000000
vn 0.000000 0.000000 -1.000000
vn 0.000000 0.000000 -1.000000
vn 0.000000 0.000000 -1.000000
vn 1.000000 0.000000 0.000000
vn 1.000000 0.000000 0.000000
vn 1.000000 0.000000 0.000000
vn 1.000000 0.000000 0.000000
vn -1.000000 0.000000 0.000000
vn -1.000000 0.000000 0.000000
vn -1.000000 0.000000 0.000000
vn -1.000000 0.000000 0.000000
s off
g pCube8
usemtl lambert10SG
f 1/1/1 2/2/2 4/3/3 3/4/4
f 3/5/5 4/6/6 6/7/7 5/8/8
f 5/9/9 6/10/10 8/11/11 7/12/12
f 2/13/13 8/14/14 6/15/15 4/16/16
f 7/17/17 1/18/18 3/19/19 5/20/20
