# This file uses centimeters as units for non-parametric coordinates.

mtllib grasperk.mtl
g default
v -0.500000 0.000000 1.120578
v 0.500000 0.000000 1.120578
v -0.500000 0.000000 -1.120578
v 0.500000 0.000000 -1.120578
v -0.500000 0.075272 1.120578
v -0.427607 0.147665 1.048185
v 0.427607 0.147665 1.048185
v 0.500000 0.075272 1.120578
v -0.427607 0.147665 -1.048185
v -0.500000 0.075272 -1.120578
v 0.427607 0.147665 -1.048185
v 0.500000 0.075272 -1.120578
vt 0.532639 0.446413
vt 0.532639 0.001992
vt 0.566091 0.001992
vt 0.566091 0.446413
vt 0.598264 0.414240
vt 0.598264 0.034165
vt 0.033448 0.034165
vt 0.413523 0.034165
vt 0.413523 0.965835
vt 0.033448 0.965835
vt 0.445695 0.001992
vt 0.445695 0.998008
vt 0.001275 0.998008
vt 0.001275 0.001992
vt 0.605155 0.446413
vt 0.605155 0.001992
vt 0.638607 0.001992
vt 0.638607 0.446413
vt 0.452870 0.998008
vt 0.452870 0.001992
vt 0.486323 0.001992
vt 0.486323 0.998008
vt 0.492754 0.998008
vt 0.492754 0.001992
vt 0.526207 0.001992
vt 0.526207 0.998008
vn -0.707107 0.707107 0.000000
vn -0.707107 0.707107 0.000000
vn -0.707107 0.707107 0.000000
vn -0.707107 0.707107 0.000000
vn 0.000000 0.707107 0.707107
vn 0.000000 0.707107 0.707107
vn 0.000000 0.707107 0.707107
vn 0.000000 0.707107 0.707107
vn 0.707107 0.707107 0.000000
vn 0.707107 0.707107 0.000000
vn 0.707107 0.707107 0.000000
vn 0.707107 0.707107 0.000000
vn 0.000000 0.707106 -0.707107
vn 0.000000 0.707106 -0.707107
vn 0.000000 0.707106 -0.707107
vn 0.000000 0.707106 -0.707107
vn 0.000000 0.000000 1.000000
vn 0.000000 0.000000 1.000000
vn 0.000000 0.000000 1.000000
vn 0.000000 0.000000 1.000000
vn 0.000000 1.000000 0.000000
vn 0.000000 1.000000 0.000000
vn 0.000000 1.000000 0.000000
vn 0.000000 1.000000 0.000000
vn 0.000000 0.000000 -1.000000
vn 0.000000 0.000000 -1.000000
vn 0.000000 0.000000 -1.000000
vn 0.000000 0.000000 -1.000000
vn 1.000000 0.000000 0.000000
vn 1.000000 0.000000 0.000000
vn 1.000000 0.000000 0.000000
vn 1.000000 0.000000 0.000000
vn -1.000000 0.000000 0.000000
vn -1.000000 0.000000 0.000000
vn -1.000000 0.000000 0.000000
vn -1.000000 0.000000 0.000000
s off
g pCube1
usemtl lambert2SG
f 5/14/1 6/7/2 9/10/3 10/13/4
f 6/5/5 5/4/6 8/3/7 7/6/8
f 7/8/9 8/11/10 12/12/11 11/9/12
f 10/13/13 9/10/14 11/9/15 12/12/16
f 1/1/17 2/2/18 8/3/19 5/4/20
f 6/7/21 7/8/22 11/9/23 9/10/24
f 10/15/25 12/16/26 4/17/27 3/18/28
f 2/19/29 4/20/30 12/21/31 8/22/32
f 3/23/33 1/24/34 5/25/35 10/26/36
