# This file uses centimeters as units for non-parametric coordinates.

mtllib ketelding.mtl
g default
v 8.308035 5.421686 -1.428035
v 8.180904 5.421686 -1.618299
v 7.990641 5.421686 -1.745430
v 7.766209 5.421686 -1.790072
v 7.541777 5.421686 -1.745430
v 7.351513 5.421686 -1.618299
v 7.224382 5.421686 -1.428035
v 7.179741 5.421686 -1.203604
v 7.224382 5.421686 -0.979172
v 7.351513 5.421686 -0.788908
v 7.541777 5.421686 -0.661778
v 7.766209 5.421686 -0.617135
v 7.990641 5.421686 -0.661777
v 8.180904 5.421686 -0.788908
v 8.308035 5.421686 -0.979172
v 8.352678 5.421686 -1.203604
v 8.308035 7.024141 -1.428035
v 8.180904 7.024141 -1.618299
v 7.990641 7.024141 -1.745430
v 7.766209 7.024141 -1.790072
v 7.541777 7.024141 -1.745430
v 7.351513 7.024141 -1.618299
v 7.224382 7.024141 -1.428035
v 7.179741 7.024141 -1.203604
v 7.224382 7.024141 -0.979172
v 7.351513 7.024141 -0.788908
v 7.541777 7.024141 -0.661778
v 7.766209 7.024141 -0.617135
v 7.990641 7.024141 -0.661777
v 8.180904 7.024141 -0.788908
v 8.308035 7.024141 -0.979172
v 8.352678 7.024141 -1.203604
v 7.926700 7.024141 -1.270081
v 7.889042 7.024141 -1.326438
v 7.832687 7.024141 -1.364094
v 7.766209 7.024141 -1.377317
v 7.699731 7.024141 -1.364094
v 7.643374 7.024141 -1.326438
v 7.605719 7.024141 -1.270081
v 7.592494 7.024141 -1.203604
v 7.605719 7.024141 -1.137126
v 7.643374 7.024141 -1.080770
v 7.699731 7.024141 -1.043113
v 7.766209 7.024141 -1.029890
v 7.832687 7.024141 -1.043113
v 7.889042 7.024141 -1.080769
v 7.926700 7.024141 -1.137126
v 7.939923 7.024141 -1.203604
v 7.926700 7.610648 -1.270081
v 7.889042 7.610648 -1.326438
v 7.832687 7.610648 -1.364094
v 7.766209 7.610648 -1.377317
v 7.699731 7.610648 -1.364094
v 7.643374 7.610648 -1.326438
v 7.605719 7.610648 -1.270081
v 7.592494 7.610648 -1.203604
v 7.605719 7.610648 -1.137126
v 7.643374 7.610648 -1.080770
v 7.699731 7.610648 -1.043113
v 7.766209 7.610648 -1.029890
v 7.832687 7.610648 -1.043113
v 7.889042 7.610648 -1.080769
v 7.926700 7.610648 -1.137126
v 7.939923 7.610648 -1.203604
v 7.856687 7.857370 -1.270081
v 7.825221 7.836688 -1.326438
v 7.778127 7.805728 -1.364094
v 7.722578 7.769215 -1.377317
v 7.667028 7.732698 -1.364094
v 7.619933 7.701741 -1.326438
v 7.588468 7.681055 -1.270081
v 7.577417 7.673791 -1.203604
v 7.588468 7.681055 -1.137126
v 7.619933 7.701741 -1.080770
v 7.667028 7.732698 -1.043113
v 7.722578 7.769215 -1.029890
v 7.778127 7.805728 -1.043113
v 7.825221 7.836688 -1.080769
v 7.856687 7.857370 -1.137126
v 7.867737 7.864635 -1.203604
v 7.649961 8.034058 -1.244742
v 7.635330 8.009343 -1.306135
v 7.612119 7.965083 -1.351921
v 7.583859 7.908014 -1.375126
v 7.554855 7.846821 -1.372218
v 7.529519 7.790825 -1.343641
v 7.511709 7.748552 -1.293743
v 7.504140 7.726430 -1.230124
v 7.507960 7.727834 -1.162466
v 7.522588 7.752550 -1.101072
v 7.545802 7.796809 -1.055287
v 7.574062 7.853881 -1.032082
v 7.603067 7.915070 -1.034989
v 7.628402 7.971067 -1.063567
v 7.646210 8.013340 -1.113463
v 7.653781 8.035460 -1.177083
v 7.445663 8.131350 -1.235225
v 7.431033 8.106637 -1.296618
v 7.407822 8.062374 -1.342404
v 7.379562 8.005307 -1.365609
v 7.350558 7.944119 -1.362701
v 7.325222 7.888121 -1.334123
v 7.307412 7.845845 -1.284226
v 7.299841 7.823724 -1.220605
v 7.303663 7.825126 -1.152950
v 7.318291 7.849841 -1.091555
v 7.341506 7.894107 -1.045768
v 7.369765 7.951173 -1.022564
v 7.398769 8.012360 -1.025471
v 7.424102 8.068359 -1.054051
v 7.441913 8.110636 -1.103945
v 7.449481 8.132751 -1.167566
v 7.334058 8.166398 -1.227234
v 7.310067 8.150605 -1.288626
v 7.269793 8.121011 -1.334410
v 7.219366 8.082121 -1.357616
v 7.166459 8.039855 -1.354709
v 7.119130 8.000649 -1.326131
v 7.084580 7.970468 -1.276233
v 7.068070 7.953909 -1.212612
v 7.072119 7.953495 -1.144958
v 7.096107 7.969291 -1.083562
v 7.136387 7.998884 -1.037773
v 7.186816 8.037773 -1.014569
v 7.239718 8.080035 -1.017475
v 7.287050 8.119246 -1.046057
v 7.321602 8.149429 -1.095953
v 7.338103 8.165982 -1.159571
v 7.233020 8.282588 -1.219241
v 7.204444 8.285476 -1.280633
v 7.064247 8.282651 -1.178100
v 7.154525 8.287931 -1.326418
v 7.090867 8.289584 -1.349623
v 7.023153 8.290181 -1.346717
v 6.961696 8.289632 -1.318141
v 6.915849 8.288019 -1.268239
v 6.892589 8.285590 -1.204615
v 6.895471 8.282714 -1.136967
v 6.924048 8.279829 -1.075571
v 6.973970 8.277372 -1.029779
v 7.037632 8.275719 -1.006575
v 7.105333 8.275122 -1.009481
v 7.166798 8.275673 -1.038063
v 7.212651 8.277284 -1.087960
v 7.235895 8.279713 -1.151580
vt 0.936314 0.003285
vt 0.963949 0.003285
vt 0.963949 0.445436
vt 0.936314 0.445436
vt 0.991584 0.445436
vt 0.577067 0.003285
vt 0.577067 0.445436
vt 0.604701 0.003285
vt 0.604701 0.445436
vt 0.632335 0.003285
vt 0.632335 0.445436
vt 0.659970 0.003285
vt 0.659970 0.445436
vt 0.687605 0.003285
vt 0.687605 0.445436
vt 0.715239 0.003285
vt 0.715239 0.445436
vt 0.742873 0.003285
vt 0.742873 0.445436
vt 0.770508 0.003285
vt 0.770508 0.445436
vt 0.798142 0.003285
vt 0.798142 0.445436
vt 0.825777 0.003285
vt 0.825777 0.445436
vt 0.853411 0.003285
vt 0.853411 0.445436
vt 0.881045 0.003285
vt 0.881045 0.445436
vt 0.908680 0.003285
vt 0.908680 0.445436
vt 0.746531 0.911253
vt 0.736856 0.936319
vt 0.533741 0.618823
vt 0.473832 0.529387
vt 0.336296 0.666580
vt 0.354041 0.693072
vt 0.384173 0.469628
vt 0.309738 0.648880
vt 0.278412 0.448643
vt 0.278412 0.642664
vt 0.172650 0.469628
vt 0.247085 0.648880
vt 0.082990 0.529387
vt 0.220527 0.666580
vt 0.023082 0.618823
vt 0.202782 0.693072
vt 0.002045 0.724320
vt 0.196551 0.724320
vt 0.745334 0.884594
vt 0.896011 0.465018
vt 0.920579 0.465018
vt 0.920579 0.749312
vt 0.896011 0.749312
vt 0.945416 0.465018
vt 0.945416 0.749312
vt 0.970623 0.465018
vt 0.588848 0.465018
vt 0.588848 0.749312
vt 0.614902 0.465018
vt 0.614902 0.749312
vt 0.641295 0.465018
vt 0.641295 0.749312
vt 0.667879 0.465018
vt 0.667879 0.749312
vt 0.694464 0.465018
vt 0.694464 0.749312
vt 0.720857 0.465018
vt 0.720857 0.749312
vt 0.746910 0.465018
vt 0.746910 0.749312
vt 0.772544 0.465018
vt 0.772544 0.749312
vt 0.797750 0.465018
vt 0.797750 0.749312
vt 0.822587 0.465018
vt 0.822587 0.749312
vt 0.847156 0.465018
vt 0.847156 0.749312
vt 0.871583 0.465018
vt 0.871583 0.749312
vt 0.280766 0.004875
vt 0.295396 0.008550
vt 0.292812 0.132114
vt 0.276491 0.135551
vt 0.310338 0.014050
vt 0.309140 0.124941
vt 0.325991 0.020537
vt 0.325711 0.115122
vt 0.343140 0.027024
vt 0.011477 0.032524
vt 0.010512 0.093701
vt 0.038812 0.036198
vt 0.034234 0.085364
vt 0.079463 0.037489
vt 0.065914 0.080404
vt 0.126768 0.036198
vt 0.105581 0.079580
vt 0.161609 0.032524
vt 0.142383 0.083018
vt 0.185621 0.027024
vt 0.170080 0.090191
vt 0.204564 0.020537
vt 0.191589 0.100011
vt 0.221178 0.014050
vt 0.210041 0.110980
vt 0.236660 0.008550
vt 0.227137 0.121430
vt 0.251574 0.004875
vt 0.243711 0.129769
vt 0.266215 0.003585
vt 0.260127 0.134727
vt 0.302972 0.234903
vt 0.279268 0.238340
vt 0.325397 0.227728
vt 0.014994 0.206941
vt 0.035422 0.196491
vt 0.056445 0.188153
vt 0.078301 0.183194
vt 0.100728 0.182369
vt 0.123117 0.185807
vt 0.144954 0.192981
vt 0.166180 0.202799
vt 0.187215 0.213768
vt 0.208725 0.224220
vt 0.231290 0.232558
vt 0.255016 0.237516
vt 0.316739 0.291117
vt 0.283121 0.288323
vt 0.343805 0.294757
vt 0.033070 0.302315
vt 0.050515 0.305084
vt 0.066986 0.306573
vt 0.082927 0.306556
vt 0.098649 0.305036
vt 0.114437 0.302243
vt 0.130613 0.298601
vt 0.147625 0.294668
vt 0.166192 0.291041
vt 0.187533 0.288274
vt 0.213593 0.286785
vt 0.246242 0.286802
vt 0.307201 0.373083
vt 0.277527 0.362359
vt 0.329335 0.390933
vt 0.012023 0.436474
vt 0.030861 0.457233
vt 0.054210 0.472309
vt 0.023082 0.829817
vt 0.202782 0.755569
vt 0.082990 0.919253
vt 0.220527 0.782060
vt 0.172650 0.979012
vt 0.247085 0.799761
vt 0.278412 0.999997
vt 0.278412 0.805976
vt 0.384173 0.979013
vt 0.309738 0.799761
vt 0.473832 0.919253
vt 0.336296 0.782060
vt 0.533741 0.829817
vt 0.354041 0.755569
vt 0.554779 0.724320
vt 0.360272 0.724320
vt 0.733439 0.860406
vt 0.675086 0.900804
vt 0.712662 0.842366
vt 0.686166 0.833224
vt 0.657981 0.834368
vt 0.632401 0.845628
vt 0.613318 0.865289
vt 0.603637 0.890357
vt 0.604836 0.917010
vt 0.616731 0.941200
vt 0.637509 0.959243
vt 0.664008 0.968385
vt 0.692187 0.967240
vt 0.717771 0.955978
vt 0.991584 0.003285
vt 1.019218 0.003285
vt 1.019218 0.445436
vt 0.082289 0.479408
vt 0.110129 0.477446
vt 0.132820 0.466724
vt 0.150510 0.448872
vt 0.165415 0.426611
vt 0.179692 0.403333
vt 0.195532 0.382572
vt 0.215801 0.367494
vt 0.243771 0.360399
vt 1.007077 0.808472
vt 0.996256 0.749312
vt 0.986718 0.826173
vt 0.970623 0.749312
vt 0.996256 0.465018
vt 0.871583 0.872425
vt 0.832941 0.868904
vt 0.801926 0.858878
vt 0.777554 0.843872
vt 0.756448 0.826173
vt 0.736090 0.808472
vt 0.941240 0.858878
vt 0.910226 0.868904
vt 0.965612 0.843872
vt 0.599669 0.808472
vt 0.620891 0.793467
vt 0.643735 0.783440
vt 0.667879 0.779919
vt 0.692023 0.783440
vt 0.714868 0.793467
vt 0.363465 0.032524
vt 0.343102 0.104151
vt 0.362501 0.093701
vt 0.387411 0.196491
vt 0.346552 0.217910
vt 0.366982 0.206941
vt 0.365912 0.298689
vt 0.347131 0.413192
vt 0.364012 0.436474
vt 0.385059 0.302315
vn 0.923878 0.000000 -0.382686
vn 0.707108 0.000000 -0.707106
vn 0.707108 0.000000 -0.707106
vn 0.923878 0.000000 -0.382686
vn 0.382685 0.000000 -0.923879
vn 0.382685 0.000000 -0.923879
vn 0.000000 0.000000 -1.000000
vn 0.000000 0.000000 -1.000000
vn -0.382683 0.000000 -0.923880
vn -0.382683 0.000000 -0.923880
vn -0.707106 0.000000 -0.707107
vn -0.707106 0.000000 -0.707107
vn -0.923880 0.000000 -0.382682
vn -0.923880 0.000000 -0.382682
vn -1.000000 0.000000 -0.000000
vn -1.000000 0.000000 -0.000000
vn -0.923880 0.000000 0.382681
vn -0.923880 0.000000 0.382681
vn -0.707106 0.000000 0.707107
vn -0.707106 0.000000 0.707107
vn -0.382683 0.000000 0.923880
vn -0.382683 0.000000 0.923880
vn -0.000000 0.000000 1.000000
vn -0.000000 0.000000 1.000000
vn 0.382684 0.000000 0.923880
vn 0.382684 0.000000 0.923880
vn 0.707108 0.000000 0.707106
vn 0.707108 0.000000 0.707106
vn 0.923879 0.000000 0.382686
vn 0.923879 0.000000 0.382686
vn 1.000000 0.000000 0.000000
vn 1.000000 0.000000 0.000000
vn 0.010612 0.999060 0.042031
vn 0.010605 0.999060 0.042035
vn 0.010612 0.999060 0.042023
vn 0.010605 0.999060 0.042025
vn 0.010621 0.999060 0.042032
vn 0.010621 0.999060 0.042032
vn 0.010609 0.999060 0.042038
vn 0.010608 0.999060 0.042031
vn 0.010616 0.999060 0.042017
vn 0.010615 0.999061 0.042011
vn 0.010623 0.999060 0.042017
vn 0.010626 0.999060 0.042023
vn 0.010615 0.999060 0.042019
vn 0.010599 0.999061 0.042021
vn 0.010601 0.999061 0.042015
vn 0.010609 0.999061 0.042013
vn 0.010606 0.999061 0.042013
vn 0.000000 1.000000 0.000000
vn 0.000000 1.000000 0.000000
vn 0.000000 1.000000 0.000000
vn 0.000000 1.000000 0.000000
vn 0.000000 1.000000 -0.000000
vn 0.000000 1.000000 -0.000000
vn 0.000000 1.000000 -0.000000
vn 0.000000 1.000000 -0.000000
vn 0.000000 1.000000 0.000000
vn 0.000000 1.000000 0.000000
vn 0.000000 1.000000 0.000000
vn 0.000000 1.000000 0.000000
vn 0.000000 1.000000 -0.000000
vn 0.000000 1.000000 -0.000000
vn 0.000000 1.000000 -0.000000
vn 0.000000 1.000000 -0.000000
vn 0.000000 1.000000 0.000000
vn 0.000000 1.000000 0.000000
vn 0.000000 1.000000 0.000000
vn 0.000000 1.000000 0.000000
vn 0.000000 1.000000 0.000000
vn 0.000000 1.000000 0.000000
vn 0.000000 1.000000 0.000000
vn 0.000000 1.000000 0.000000
vn 0.000000 1.000000 0.000000
vn 0.000000 1.000000 0.000000
vn 0.000000 1.000000 0.000000
vn 0.000000 1.000000 0.000000
vn 0.000000 1.000000 0.000000
vn 0.000000 1.000000 0.000000
vn 0.000000 1.000000 0.000000
vn 0.000000 1.000000 0.000000
vn 0.000000 1.000000 0.000000
vn 0.000000 1.000000 0.000000
vn 0.000000 1.000000 0.000000
vn 0.000000 1.000000 0.000000
vn 0.000000 1.000000 0.000000
vn 0.000000 1.000000 0.000000
vn 0.000000 1.000000 0.000000
vn 0.000000 1.000000 0.000000
vn 0.000000 1.000000 0.000000
vn 0.000000 1.000000 0.000000
vn 0.000000 1.000000 0.000000
vn 0.000000 1.000000 0.000000
vn 0.000000 1.000000 -0.000000
vn 0.000000 1.000000 -0.000000
vn 0.000000 1.000000 -0.000000
vn 0.000000 1.000000 -0.000000
vn 0.000000 1.000000 0.000000
vn 0.000000 1.000000 0.000000
vn 0.000000 1.000000 0.000000
vn 0.000000 1.000000 0.000000
vn 0.000000 1.000000 0.000000
vn 0.000000 1.000000 0.000000
vn 0.000000 1.000000 0.000000
vn 0.000000 1.000000 0.000000
vn 0.000000 1.000000 0.000000
vn 0.000000 1.000000 0.000000
vn 0.000000 1.000000 0.000000
vn 0.000000 1.000000 0.000000
vn 0.000000 1.000000 0.000000
vn 0.000000 1.000000 0.000000
vn 0.000000 1.000000 0.000000
vn 0.000000 1.000000 0.000000
vn 0.923875 0.000000 -0.382694
vn 0.707106 0.000000 -0.707108
vn 0.707106 0.000000 -0.707108
vn 0.923875 0.000000 -0.382694
vn 0.382687 0.000000 -0.923878
vn 0.382687 0.000000 -0.923878
vn 0.000000 0.000000 -1.000000
vn 0.000000 0.000000 -1.000000
vn -0.382678 0.000000 -0.923882
vn -0.382678 0.000000 -0.923882
vn -0.707108 0.000000 -0.707106
vn -0.707108 0.000000 -0.707106
vn -0.923880 0.000000 -0.382683
vn -0.923880 0.000000 -0.382683
vn -1.000000 0.000000 0.000000
vn -1.000000 0.000000 0.000000
vn -0.923880 0.000000 0.382683
vn -0.923880 0.000000 0.382683
vn -0.707108 0.000000 0.707106
vn -0.707108 0.000000 0.707106
vn -0.382679 0.000000 0.923881
vn -0.382679 0.000000 0.923881
vn -0.000001 0.000000 1.000000
vn -0.000001 0.000000 1.000000
vn 0.382687 0.000000 0.923878
vn 0.382687 0.000000 0.923878
vn 0.707106 0.000000 0.707108
vn 0.707106 0.000000 0.707108
vn 0.923875 0.000000 0.382694
vn 0.923875 0.000000 0.382694
vn 1.000000 0.000000 0.000000
vn 1.000000 0.000000 0.000000
vn 0.900656 0.255445 -0.351522
vn 0.718334 0.202901 -0.665453
vn 0.616721 0.429737 -0.659532
vn 0.778062 0.529529 -0.337962
vn 0.425627 0.119388 -0.896988
vn 0.368910 0.267286 -0.890204
vn 0.055440 0.015800 -0.998337
vn 0.068939 0.060882 -0.995761
vn -0.331881 -0.088520 -0.939159
vn -0.240531 -0.164738 -0.956560
vn -0.666135 -0.171829 -0.725768
vn -0.514416 -0.379517 -0.768988
vn -0.891662 -0.220554 -0.395342
vn -0.710565 -0.544548 -0.445606
vn -0.971929 -0.235275 0.000000
vn -0.791818 -0.610129 -0.027699
vn -0.891662 -0.220554 0.395342
vn -0.735449 -0.550526 0.395013
vn -0.666135 -0.171829 0.725768
vn -0.553264 -0.399850 0.730766
vn -0.331882 -0.088520 0.939158
vn -0.282991 -0.203900 0.937198
vn 0.055440 0.015799 0.998337
vn 0.030018 0.008602 0.999512
vn 0.425627 0.119388 0.896988
vn 0.337942 0.213611 0.916606
vn 0.718334 0.202901 0.665453
vn 0.595757 0.386581 0.704009
vn 0.900656 0.255445 0.351522
vn 0.767609 0.505693 0.393764
vn 0.961960 0.273190 0.000000
vn 0.830900 0.555623 0.029816
vn 0.414300 0.680017 -0.604923
vn 0.514868 0.814985 -0.265916
vn 0.252404 0.443730 -0.859881
vn 0.054474 0.135319 -0.989303
vn -0.145273 -0.200631 -0.968836
vn -0.312751 -0.511534 -0.800325
vn -0.424613 -0.747669 -0.510583
vn -0.471650 -0.870116 -0.142983
vn -0.452920 -0.855914 0.249549
vn -0.368452 -0.703696 0.607499
vn -0.221662 -0.438386 0.871024
vn -0.029247 -0.107061 0.993822
vn 0.176847 0.233083 0.956241
vn 0.358998 0.527652 0.769873
vn 0.486176 0.735858 0.471323
vn 0.540133 0.834457 0.109260
vn 0.299422 0.759127 -0.577990
vn 0.368043 0.901638 -0.227141
vn 0.182384 0.497835 -0.847878
vn 0.026005 0.157321 -0.987205
vn -0.146030 -0.203093 -0.968209
vn -0.301714 -0.522617 -0.797396
vn -0.412629 -0.755319 -0.509147
vn -0.460859 -0.874550 -0.150903
vn -0.439500 -0.869020 0.227252
vn -0.351362 -0.738676 0.575241
vn -0.209195 -0.495361 0.843122
vn -0.036742 -0.167716 0.985150
vn 0.133681 0.195336 0.971583
vn 0.270701 0.530969 0.802990
vn 0.356151 0.781048 0.512953
vn 0.387436 0.909172 0.152640
vn 0.479941 0.657587 -0.580720
vn 0.286826 0.932726 -0.218523
vn 0.309577 0.403397 -0.861065
vn 0.056593 0.106416 -0.992710
vn -0.224872 -0.173964 -0.958733
vn -0.477380 -0.403745 -0.780447
vn -0.658911 -0.565550 -0.495973
vn -0.745101 -0.650146 -0.148777
vn -0.725959 -0.652677 0.216785
vn -0.603465 -0.571547 0.556026
vn -0.392132 -0.408935 0.824017
vn -0.122419 -0.172959 0.977292
vn 0.157090 0.116755 0.980659
vn 0.386428 0.419566 0.821363
vn 0.521233 0.670400 0.528091
vn 0.301296 0.938242 0.170069
vn 0.738657 0.643540 -0.200603
vn 0.628585 0.516498 -0.581472
vn 0.736852 0.641078 -0.214636
vn 0.390177 0.307944 -0.867717
vn 0.052801 0.073359 -0.995907
vn -0.299412 -0.137920 -0.944103
vn -0.591234 -0.299934 -0.748653
vn -0.786041 -0.406902 -0.465371
vn -0.875743 -0.462088 -0.139820
vn -0.861369 -0.468319 0.196774
vn -0.743011 -0.423781 0.518019
vn -0.521051 -0.322014 0.790451
vn -0.208929 -0.156936 0.965256
vn 0.146733 0.065122 0.987030
vn 0.463435 0.311781 0.829470
vn 0.666360 0.524868 0.529601
vn 0.747412 0.647131 0.150325
vn 0.746297 0.644874 0.164857
s 1
g pCylinder1
usemtl lambert9SG
f 1/1/1 2/2/2 18/3/3 17/4/4
f 2/2/2 3/179/5 19/5/6 18/3/3
f 3/179/5 4/180/7 20/181/8 19/5/6
f 4/6/7 5/8/9 21/9/10 20/7/8
f 5/8/9 6/10/11 22/11/12 21/9/10
f 6/10/11 7/12/13 23/13/14 22/11/12
f 7/12/13 8/14/15 24/15/16 23/13/14
f 8/14/15 9/16/17 25/17/18 24/15/16
f 9/16/17 10/18/19 26/19/20 25/17/18
f 10/18/19 11/20/21 27/21/22 26/19/20
f 11/20/21 12/22/23 28/23/24 27/21/22
f 12/22/23 13/24/25 29/25/26 28/23/24
f 13/24/25 14/26/27 30/27/28 29/25/26
f 14/26/27 15/28/29 31/29/30 30/27/28
f 15/28/29 16/30/31 32/31/32 31/29/30
f 16/30/31 1/1/1 17/4/4 32/31/32
s 2
f 129/50/33 130/165/34 131/166/35
f 130/165/34 132/167/36 131/166/35
f 132/167/36 133/168/37 131/166/35
f 133/168/37 134/169/38 131/166/35
f 134/169/38 135/170/39 131/166/35
f 135/170/39 136/171/40 131/166/35
f 136/171/40 137/172/41 131/166/35
f 137/172/41 138/173/42 131/166/35
f 138/173/42 139/174/43 131/166/35
f 139/174/43 140/175/44 131/166/35
f 140/175/44 141/176/45 131/166/35
f 141/176/45 142/177/46 131/166/35
f 142/177/46 143/178/47 131/166/35
f 143/178/47 144/33/48 131/166/35
f 144/33/48 145/32/49 131/166/35
f 145/32/49 129/50/33 131/166/35
s off
f 17/34/50 18/35/51 34/36/52 33/37/53
f 18/35/54 19/38/55 35/39/56 34/36/57
f 19/38/58 20/40/59 36/41/60 35/39/61
f 20/40/62 21/42/63 37/43/64 36/41/65
f 21/42/66 22/44/67 38/45/68 37/43/69
f 22/44/70 23/46/71 39/47/72 38/45/73
f 23/46/74 24/48/75 40/49/76 39/47/77
f 24/48/78 25/149/79 41/150/80 40/49/81
f 25/149/82 26/151/83 42/152/84 41/150/85
f 26/151/86 27/153/87 43/154/88 42/152/89
f 27/153/90 28/155/91 44/156/92 43/154/93
f 28/155/94 29/157/95 45/158/96 44/156/97
f 29/157/98 30/159/99 46/160/100 45/158/101
f 30/159/102 31/161/103 47/162/104 46/160/105
f 31/161/106 32/163/107 48/164/108 47/162/109
f 32/163/110 17/34/111 33/37/112 48/164/113
s 3
f 33/51/114 34/52/115 50/53/116 49/54/117
f 34/52/115 35/55/118 51/56/119 50/53/116
f 35/55/118 36/57/120 52/194/121 51/56/119
f 36/57/120 37/195/122 53/192/123 52/194/121
f 37/58/122 38/60/124 54/61/125 53/59/123
f 38/60/124 39/62/126 55/63/127 54/61/125
f 39/62/126 40/64/128 56/65/129 55/63/127
f 40/64/128 41/66/130 57/67/131 56/65/129
f 41/66/130 42/68/132 58/69/133 57/67/131
f 42/68/132 43/70/134 59/71/135 58/69/133
f 43/70/134 44/72/136 60/73/137 59/71/135
f 44/72/136 45/74/138 61/75/139 60/73/137
f 45/74/138 46/76/140 62/77/141 61/75/139
f 46/76/140 47/78/142 63/79/143 62/77/141
f 47/78/142 48/80/144 64/81/145 63/79/143
f 48/80/144 33/51/114 49/54/117 64/81/145
s 4
f 49/54/146 50/53/147 66/202/148 65/203/149
f 50/53/147 51/56/150 67/204/151 66/202/148
f 51/56/150 52/194/152 68/193/153 67/204/151
f 52/194/152 53/192/154 69/191/155 68/193/153
f 53/59/154 54/61/156 70/206/157 69/205/155
f 54/61/156 55/63/158 71/207/159 70/206/157
f 55/63/158 56/65/160 72/208/161 71/207/159
f 56/65/160 57/67/162 73/209/163 72/208/161
f 57/67/162 58/69/164 74/210/165 73/209/163
f 58/69/164 59/71/166 75/201/167 74/210/165
f 59/71/166 60/73/168 76/200/169 75/201/167
f 60/73/168 61/75/170 77/199/171 76/200/169
f 61/75/170 62/77/172 78/198/173 77/199/171
f 62/77/172 63/79/174 79/197/175 78/198/173
f 63/79/174 64/81/176 80/196/177 79/197/175
f 64/81/176 49/54/146 65/203/149 80/196/177
f 65/82/149 66/83/148 82/84/178 81/85/179
f 66/83/148 67/86/151 83/87/180 82/84/178
f 67/86/151 68/88/153 84/89/181 83/87/180
f 68/88/153 69/90/155 85/212/182 84/89/181
f 69/90/155 70/211/157 86/213/183 85/212/182
f 70/91/157 71/93/159 87/94/184 86/92/183
f 71/93/159 72/95/161 88/96/185 87/94/184
f 72/95/161 73/97/163 89/98/186 88/96/185
f 73/97/163 74/99/165 90/100/187 89/98/186
f 74/99/165 75/101/167 91/102/188 90/100/187
f 75/101/167 76/103/169 92/104/189 91/102/188
f 76/103/169 77/105/171 93/106/190 92/104/189
f 77/105/171 78/107/173 94/108/191 93/106/190
f 78/107/173 79/109/175 95/110/192 94/108/191
f 79/109/175 80/111/177 96/112/193 95/110/192
f 80/111/177 65/82/149 81/85/179 96/112/193
f 81/85/179 82/84/178 98/113/194 97/114/195
f 82/84/178 83/87/180 99/115/196 98/113/194
f 83/87/180 84/89/181 100/215/197 99/115/196
f 84/89/181 85/212/182 101/216/198 100/215/197
f 85/212/182 86/213/183 102/214/199 101/216/198
f 86/92/183 87/94/184 103/118/200 102/117/199
f 87/94/184 88/96/185 104/119/201 103/118/200
f 88/96/185 89/98/186 105/120/202 104/119/201
f 89/98/186 90/100/187 106/121/203 105/120/202
f 90/100/187 91/102/188 107/122/204 106/121/203
f 91/102/188 92/104/189 108/123/205 107/122/204
f 92/104/189 93/106/190 109/124/206 108/123/205
f 93/106/190 94/108/191 110/125/207 109/124/206
f 94/108/191 95/110/192 111/126/208 110/125/207
f 95/110/192 96/112/193 112/127/209 111/126/208
f 96/112/193 81/85/179 97/114/195 112/127/209
f 97/114/195 98/113/194 114/128/210 113/129/211
f 98/113/194 99/115/196 115/130/212 114/128/210
f 99/115/196 100/215/197 116/217/213 115/130/212
f 100/215/197 101/216/198 117/220/214 116/217/213
f 101/116/198 102/117/199 118/132/215 117/131/214
f 102/117/199 103/118/200 119/133/216 118/132/215
f 103/118/200 104/119/201 120/134/217 119/133/216
f 104/119/201 105/120/202 121/135/218 120/134/217
f 105/120/202 106/121/203 122/136/219 121/135/218
f 106/121/203 107/122/204 123/137/220 122/136/219
f 107/122/204 108/123/205 124/138/221 123/137/220
f 108/123/205 109/124/206 125/139/222 124/138/221
f 109/124/206 110/125/207 126/140/223 125/139/222
f 110/125/207 111/126/208 127/141/224 126/140/223
f 111/126/208 112/127/209 128/142/225 127/141/224
f 112/127/209 97/114/195 113/129/211 128/142/225
f 113/129/226 114/128/210 130/143/227 129/144/228
f 114/128/210 115/130/212 132/145/229 130/143/227
f 115/130/212 116/217/213 133/218/230 132/145/229
f 116/217/213 117/220/214 134/219/231 133/218/230
f 117/131/214 118/132/215 135/147/232 134/146/231
f 118/132/215 119/133/216 136/148/233 135/147/232
f 119/133/216 120/134/217 137/182/234 136/148/233
f 120/134/217 121/135/218 138/183/235 137/182/234
f 121/135/218 122/136/219 139/184/236 138/183/235
f 122/136/219 123/137/220 140/185/237 139/184/236
f 123/137/220 124/138/221 141/186/238 140/185/237
f 124/138/221 125/139/222 142/187/239 141/186/238
f 125/139/222 126/140/223 143/188/240 142/187/239
f 126/140/223 127/141/224 144/189/241 143/188/240
f 127/141/224 128/142/242 145/190/243 144/189/241
f 128/142/242 113/129/226 129/144/228 145/190/243
